<svg width="51" height="51" viewBox="0 0 51 51" fill="none" xmlns="http://www.w3.org/2000/svg">
<circle cx="25.5693" cy="25.6918" r="25.1448" fill="#F4F9FE"/>
<path fill-rule="evenodd" clip-rule="evenodd" d="M16.8407 20.2256C16.8407 17.1645 19.2554 14.7593 22.3287 14.7593C25.402 14.7593 27.8168 17.1645 27.8168 20.2256C27.8168 23.2867 25.402 25.6918 22.3287 25.6918C19.2554 25.6918 16.8407 23.2867 16.8407 20.2256ZM32.2072 33.3446V35.5311C32.2072 36.187 31.7682 36.6243 31.1096 36.6243C30.451 36.6243 30.012 36.187 30.012 35.5311V33.3446C30.012 31.486 28.5851 30.0648 26.7192 30.0648H17.9383C16.0724 30.0648 14.6455 31.486 14.6455 33.3446V35.5311C14.6455 36.187 14.2064 36.6243 13.5479 36.6243C12.8893 36.6243 12.4503 36.187 12.4503 35.5311V33.3446C12.4503 30.2835 14.865 27.8783 17.9383 27.8783H26.7192C29.7925 27.8783 32.2072 30.2835 32.2072 33.3446ZM22.3287 23.5053C20.4628 23.5053 19.0359 22.0841 19.0359 20.2256C19.0359 18.367 20.4628 16.9458 22.3287 16.9458C24.1947 16.9458 25.6216 18.367 25.6216 20.2256C25.6216 22.0841 24.1947 23.5053 22.3287 23.5053ZM34.6219 28.097C34.0731 27.9876 33.4146 28.3156 33.3048 28.8622C33.195 29.4089 33.5243 30.0648 34.0731 30.1741C35.5 30.5021 36.4879 31.814 36.4879 33.3446V35.5311C36.4879 36.187 36.9269 36.6243 37.5855 36.6243C38.244 36.6243 38.6831 36.187 38.6831 35.5311V33.3446C38.7928 30.8301 37.1464 28.6436 34.6219 28.097ZM28.9144 15.7432C29.1339 15.0873 29.6827 14.7593 30.2315 14.978C33.1951 15.6339 34.9512 18.695 34.1829 21.7561C33.7439 23.724 32.2072 25.1452 30.2315 25.6918H30.012C29.4632 25.6918 29.0241 25.3638 28.9144 24.8172C28.6949 24.2706 29.1339 23.6146 29.6827 23.5053C30.8901 23.1773 31.7682 22.3027 32.0974 21.1002C32.5365 19.2416 31.4389 17.4924 29.6827 17.0551C29.1339 16.9458 28.8046 16.2899 28.9144 15.7432Z" fill="black"/>
<mask id="mask0_1_1006" style="mask-type:luminance" maskUnits="userSpaceOnUse" x="12" y="14" width="27" height="23">
<path fill-rule="evenodd" clip-rule="evenodd" d="M16.8407 20.2256C16.8407 17.1645 19.2554 14.7593 22.3287 14.7593C25.402 14.7593 27.8168 17.1645 27.8168 20.2256C27.8168 23.2867 25.402 25.6918 22.3287 25.6918C19.2554 25.6918 16.8407 23.2867 16.8407 20.2256ZM32.2072 33.3446V35.5311C32.2072 36.187 31.7682 36.6243 31.1096 36.6243C30.451 36.6243 30.012 36.187 30.012 35.5311V33.3446C30.012 31.486 28.5851 30.0648 26.7192 30.0648H17.9383C16.0724 30.0648 14.6455 31.486 14.6455 33.3446V35.5311C14.6455 36.187 14.2064 36.6243 13.5479 36.6243C12.8893 36.6243 12.4503 36.187 12.4503 35.5311V33.3446C12.4503 30.2835 14.865 27.8783 17.9383 27.8783H26.7192C29.7925 27.8783 32.2072 30.2835 32.2072 33.3446ZM22.3287 23.5053C20.4628 23.5053 19.0359 22.0841 19.0359 20.2256C19.0359 18.367 20.4628 16.9458 22.3287 16.9458C24.1947 16.9458 25.6216 18.367 25.6216 20.2256C25.6216 22.0841 24.1947 23.5053 22.3287 23.5053ZM34.6219 28.097C34.0731 27.9876 33.4146 28.3156 33.3048 28.8622C33.195 29.4089 33.5243 30.0648 34.0731 30.1741C35.5 30.5021 36.4879 31.814 36.4879 33.3446V35.5311C36.4879 36.187 36.9269 36.6243 37.5855 36.6243C38.244 36.6243 38.6831 36.187 38.6831 35.5311V33.3446C38.7928 30.8301 37.1464 28.6436 34.6219 28.097ZM28.9144 15.7432C29.1339 15.0873 29.6827 14.7593 30.2315 14.978C33.1951 15.6339 34.9512 18.695 34.1829 21.7561C33.7439 23.724 32.2072 25.1452 30.2315 25.6918H30.012C29.4632 25.6918 29.0241 25.3638 28.9144 24.8172C28.6949 24.2706 29.1339 23.6146 29.6827 23.5053C30.8901 23.1773 31.7682 22.3027 32.0974 21.1002C32.5365 19.2416 31.4389 17.4924 29.6827 17.0551C29.1339 16.9458 28.8046 16.2899 28.9144 15.7432Z" fill="white"/>
</mask>
<g mask="url(#mask0_1_1006)">
<rect x="12.4503" y="12.5728" width="26.238" height="26.238" fill="#62A5FF"/>
</g>
</svg>
